<svg width="48" height="48" viewBox="0 0 48 48" fill="none" xmlns="http://www.w3.org/2000/svg">
<path d="M41.2496 11.3134L22.0778 0.250885C21.4977 -0.0834656 20.7836 -0.0834656 20.2035 0.250885L1.03162 11.3134C0.451172 11.6485 0.09375 12.2674 0.09375 12.9375V35.0625C0.09375 35.7327 0.451172 36.3516 1.03162 36.6867L20.2035 47.7492C20.7836 48.0835 21.4977 48.0835 22.0778 47.7492L41.2496 36.6867C41.8301 36.3516 42.1875 35.7327 42.1875 35.0625V12.9375C42.1875 12.2674 41.8301 11.6485 41.2496 11.3134ZM38.4375 33.9796L21.1406 43.9604L3.84375 33.9796V14.0204L21.1406 4.0397L38.4375 14.0204V33.9796ZM13.5483 20.6012L10.1492 24L13.5483 27.3988C14.2804 28.1313 14.2804 29.3181 13.5483 30.0506C12.8159 30.7826 11.6287 30.7826 10.8966 30.0506L6.17175 25.3257C5.4397 24.5937 5.4397 23.4064 6.17175 22.6744L10.8966 17.9495C11.6287 17.2174 12.8159 17.2174 13.5483 17.9495C14.2804 18.6819 14.2804 19.8688 13.5483 20.6012ZM28.7329 27.3988L32.1321 24L28.7329 20.6012C28.0009 19.8688 28.0009 18.6819 28.7329 17.9495C29.4653 17.2174 30.6526 17.2174 31.3846 17.9495L36.1095 22.6744C36.8416 23.4064 36.8416 24.5937 36.1095 25.3257L31.3846 30.0506C30.6526 30.7826 29.4653 30.7826 28.7329 30.0506C28.0009 29.3181 28.0009 28.1313 28.7329 27.3988ZM16.1884 29.7122L22.7388 16.611C23.202 15.6848 24.3278 15.3091 25.2543 15.7724C26.1808 16.2356 26.5562 17.3617 26.0929 18.2879L19.5425 31.3894C19.0811 32.3119 17.9568 32.6928 17.0266 32.2277C16.1005 31.7648 15.7251 30.6383 16.1884 29.7122Z" fill="url(#paint0_linear)"/>
<defs>
<linearGradient id="paint0_linear" x1="0.0937359" y1="24" x2="42.1875" y2="24" gradientUnits="userSpaceOnUse">
<stop stop-color="#F1CA89"/>
<stop offset="0.741313" stop-color="#F1CA89"/>
<stop offset="0.861004" stop-color="#F1CA89"/>
<stop offset="1" stop-color="#F1CA89"/>
</linearGradient>
</defs>
</svg>
