<svg width="45" height="45" viewBox="0 0 45 45" fill="none" xmlns="http://www.w3.org/2000/svg">
<g clip-path="url(#clip0)">
<path d="M38.8267 32.9999C39.0649 31.7354 39.0588 30.4371 38.8087 29.1749L42.2437 20.8852C42.244 20.8797 42.244 20.8742 42.2437 20.8687C42.8003 19.3447 43.616 17.9284 44.6549 16.6822C44.9134 16.4091 45.0174 16.0245 44.9317 15.6584L43.5232 9.57591C43.5064 9.51232 43.4812 9.45127 43.4482 9.39441C43.4422 9.38316 43.4399 9.36966 43.4339 9.35916C43.4279 9.34866 43.4017 9.32316 43.3867 9.30366C43.356 9.25872 43.3205 9.21723 43.2809 9.17991C43.2548 9.16155 43.2275 9.14502 43.1992 9.13041C43.1626 9.10349 43.1237 9.0799 43.0829 9.05991C43.0264 9.03855 42.9674 9.0242 42.9074 9.01716C42.8902 9.01716 42.8752 9.00591 42.8579 9.00441C42.7142 8.99483 42.5707 9.02685 42.4447 9.09666C42.4334 9.10266 42.4199 9.10491 42.4087 9.11166H42.4012L37.1054 12.4169C36.7847 12.6155 36.5856 12.9623 36.5759 13.3394C36.4288 14.9588 36.0022 16.5404 35.3152 18.0142V18.0224L33.5984 22.1722C32.7558 21.7242 31.8538 21.3985 30.9194 21.2047C31.2731 18.7634 31.4031 16.2949 31.3079 13.8299C32.704 12.1548 33.3741 9.9919 33.1694 7.82091C32.7007 3.44991 28.7504 0.293156 28.5817 0.160406C28.328 -0.0393249 27.9751 -0.0543459 27.7054 0.123116C27.4357 0.300577 27.3098 0.630699 27.3929 0.942656C27.7792 2.39316 27.4447 3.92391 24.5917 7.07166C23.3098 8.30937 22.9035 10.1992 23.5634 11.8544C23.8157 12.4875 24.1772 13.0713 24.6314 13.5794C24.4499 14.7382 24.3074 15.8354 24.2092 16.9042C24.04 18.6718 23.9964 20.4493 24.0787 22.2232C23.4096 22.5859 22.7832 23.0224 22.2112 23.5244L18.5737 7.96941C18.5737 7.95366 18.5587 7.94241 18.5542 7.92816C18.542 7.87815 18.5244 7.82961 18.5017 7.78341L14.7862 0.921656C14.4143 0.234861 13.6288 -0.118063 12.8684 0.0600336C12.108 0.23813 11.5609 0.903171 11.5327 1.68366L11.2507 9.47991C11.2508 9.53617 11.2571 9.59225 11.2694 9.64716C11.2694 9.65916 11.2694 9.66966 11.2694 9.68091L14.9804 25.5187C14.395 25.5445 13.8139 25.6312 13.2464 25.7774L9.16416 15.9187C8.83682 15.165 7.96862 14.8094 7.20666 15.1169L0.967413 17.6999C0.203813 18.0186 -0.159072 18.8942 0.155163 19.6597L5.69166 33.0157C2.44679 33.186 -0.0719576 35.91 0.011795 39.1582C0.0955476 42.4065 2.75132 44.997 6.00066 44.9999H39.0007C41.1443 44.9688 43.1084 43.7965 44.1533 41.9246C45.1982 40.0526 45.165 37.7654 44.0663 35.9246C42.9676 34.0837 40.9703 32.9688 38.8267 32.9999ZM38.0624 13.5869L41.2064 11.6249L40.0934 14.3129C39.9348 14.6956 40.1164 15.1345 40.4992 15.2932C40.8819 15.4518 41.3208 15.2701 41.4794 14.8874L42.5924 12.1994L43.4257 15.8092C42.5342 16.8968 41.8018 18.1056 41.2507 19.3994C40.4687 19.7619 39.5708 19.7807 38.7744 19.4513C37.9779 19.1219 37.3556 18.4743 37.0582 17.6654C37.5849 16.3605 37.9231 14.9872 38.0624 13.5869ZM36.3374 19.4752C36.8336 20.0818 37.4775 20.5505 38.2072 20.8364C38.7872 21.0859 39.411 21.2174 40.0424 21.2234C40.1943 21.2228 40.3461 21.2136 40.4969 21.1957L38.1037 26.9707C37.387 25.3906 36.2785 24.02 34.8832 22.9889L36.3374 19.4752ZM26.0624 14.1187L29.8304 14.3489C29.8537 15.0494 29.8454 15.7739 29.8222 16.5097C28.5669 16.5993 27.3054 16.5384 26.0647 16.3282C25.9702 16.3147 25.8779 16.3042 25.7842 16.2914C25.8592 15.5849 25.9507 14.8694 26.0609 14.1187H26.0624ZM25.7047 8.07891C27.6959 5.88216 28.7279 4.19241 28.9679 2.60391C30.3992 4.07657 31.344 5.95307 31.6747 7.97991C31.8322 9.74435 31.2866 11.4996 30.1567 12.8639C28.6752 12.7739 27.2099 12.6839 25.7609 12.5939C25.1383 12.0119 24.7801 11.201 24.7692 10.3487C24.7583 9.49648 25.0956 8.67669 25.7032 8.07891H25.7047ZM25.6477 17.7862L25.8652 17.8147C26.8316 17.9641 27.8071 18.0471 28.7849 18.0629C29.0954 18.0629 29.4224 18.0382 29.7502 18.0127C29.6819 18.9779 29.5702 19.9859 29.4284 21.0277C29.2432 21.0179 29.0617 20.9999 28.8757 20.9999C27.7433 21.0019 26.6195 21.1954 25.5517 21.5722C25.5171 20.3094 25.5486 19.0456 25.6462 17.7862H25.6477ZM19.8464 26.5567L17.7007 17.4164C17.6004 17.0199 17.2008 16.7768 16.8025 16.8701C16.4043 16.9634 16.1542 17.3586 16.2404 17.7584L18.1687 25.9852C17.6385 25.7956 17.0908 25.6591 16.5337 25.5779L13.2419 11.5304C13.703 11.7404 14.2037 11.8493 14.7104 11.8499C14.7577 11.8499 14.8079 11.8432 14.8559 11.8409L15.3862 14.1052C15.4433 14.3702 15.639 14.5837 15.8981 14.6637C16.1571 14.7437 16.4392 14.6776 16.6358 14.4909C16.8324 14.3043 16.9129 14.026 16.8464 13.7632L16.3154 11.4974C16.8243 11.2721 17.2731 10.9305 17.6257 10.4999L20.9722 24.8092C20.5376 25.3512 20.1603 25.9369 19.8464 26.5567ZM15.2639 10.2817C14.3047 10.4677 13.3254 10.0755 12.7597 9.27891L12.8549 6.63741C13.1159 6.68615 13.3807 6.71125 13.6462 6.71241C13.9026 6.71348 14.1583 6.68504 14.4082 6.62766C14.9141 6.49478 15.3874 6.25942 15.7987 5.93616L17.0617 8.26716C16.9112 9.2343 16.2076 10.0233 15.2639 10.2832V10.2817ZM13.2097 1.52016C13.3118 1.49649 13.4173 1.54369 13.4677 1.63566L15.0757 4.60941C14.7856 4.87183 14.4392 5.06425 14.0632 5.17191C13.6788 5.24245 13.2834 5.22372 12.9074 5.11716L13.0297 1.73766C13.0337 1.63286 13.1075 1.54376 13.2097 1.52016ZM7.78191 16.4999L8.35491 17.8844L5.57991 19.0334C5.25093 19.1716 5.06483 19.5224 5.13491 19.8722C5.20499 20.2221 5.51185 20.4741 5.86866 20.4749C5.9672 20.4747 6.06476 20.4553 6.15591 20.4179L8.93091 19.2682L9.50466 20.6542L8.11641 21.2294C7.78555 21.3663 7.59763 21.7181 7.66771 22.0692C7.7378 22.4204 8.04634 22.673 8.40441 22.6724C8.5027 22.6721 8.59998 22.6527 8.69091 22.6154L10.0792 22.0402L10.6529 23.4262L7.87566 24.5774C7.5448 24.7143 7.35688 25.066 7.42696 25.4172C7.49705 25.7684 7.80559 26.021 8.16366 26.0204C8.26195 26.0201 8.35925 26.0008 8.45016 25.9634L11.2252 24.8144L11.8319 26.2792C9.38796 27.3947 7.59583 29.576 6.97566 32.1899L1.53966 19.0829L7.78191 16.4999ZM39.0007 43.4999H6.00066C3.51538 43.4999 1.50066 41.4852 1.50066 38.9999C1.50066 36.5146 3.51538 34.4999 6.00066 34.4999C6.43523 34.4985 6.86764 34.5611 7.28391 34.6859C7.5088 34.7538 7.75251 34.7125 7.94239 34.5742C8.13227 34.4358 8.24637 34.2165 8.25066 33.9817C8.30402 31.3087 9.84921 28.8906 12.2524 27.7192C14.6556 26.5478 17.5123 26.8203 19.6507 28.4249C19.8396 28.5656 20.0837 28.6093 20.3097 28.5429C20.5357 28.4766 20.7175 28.3079 20.8004 28.0874C22.2657 24.1823 26.3155 21.8852 30.4191 22.6316C34.5227 23.378 37.5043 26.9539 37.5007 31.1249C37.5021 31.9826 37.3744 32.8357 37.1219 33.6554C37.0431 33.9104 37.1058 34.1882 37.2865 34.3846C37.4672 34.5811 37.7387 34.6667 37.9994 34.6094C38.3283 34.537 38.6639 34.5003 39.0007 34.4999C41.4859 34.4999 43.5007 36.5146 43.5007 38.9999C43.5007 41.4852 41.4859 43.4999 39.0007 43.4999Z" fill="#F1CA89"/>
<path d="M29.0131 11.775C29.2485 11.7758 29.4707 11.6662 29.6131 11.4787C30.5494 10.2114 30.9113 8.60945 30.6106 7.06271C30.5466 6.79824 30.3444 6.58916 30.0822 6.51637C29.8201 6.44358 29.539 6.51849 29.3479 6.71213C29.1567 6.90576 29.0854 7.18774 29.1616 7.44896C29.3411 8.54804 29.0732 9.67326 28.4176 10.5735C28.2471 10.8007 28.2197 11.1048 28.3468 11.3589C28.4738 11.613 28.7335 11.7735 29.0176 11.7735L29.0131 11.775Z" fill="#F1CA89"/>
<path d="M28.0268 34.4999C27.4691 34.5016 26.9191 34.6298 26.4181 34.8749C25.0689 33.0287 22.5497 32.4879 20.5616 33.6176C18.5735 34.7474 17.7488 37.1884 18.6443 39.2924C18.7622 39.5689 19.0337 39.7484 19.3343 39.7484C19.4354 39.7486 19.5354 39.7282 19.6283 39.6884C19.8113 39.6104 19.9559 39.463 20.0301 39.2784C20.1044 39.0939 20.1023 38.8874 20.0243 38.7044C19.861 38.3238 19.7768 37.914 19.7768 37.4999C19.7768 35.843 21.12 34.4999 22.7768 34.4999C23.9405 34.4941 25.0003 35.1684 25.4881 36.2249C25.5043 36.2493 25.5218 36.2729 25.5406 36.2954C25.5524 36.3211 25.5657 36.3462 25.5803 36.3704C25.5938 36.3869 25.6133 36.3944 25.6283 36.4101C25.6635 36.4467 25.7025 36.4794 25.7446 36.5076C25.782 36.5365 25.8222 36.5616 25.8646 36.5826C25.9081 36.6009 25.9533 36.615 25.9996 36.6246C26.0457 36.6368 26.0929 36.644 26.1406 36.6464C26.238 36.6456 26.3347 36.6294 26.4271 36.5984C26.4471 36.5947 26.4668 36.59 26.4863 36.5841C26.5107 36.5684 26.534 36.5511 26.5561 36.5324C26.5831 36.5204 26.6094 36.5069 26.6348 36.4919C27.0288 36.1733 27.5202 35.9996 28.0268 35.9999C28.9038 36.0013 29.7 36.5121 30.0668 37.3086C30.2387 37.6856 30.6836 37.8518 31.0606 37.6799C31.4375 37.508 31.6037 37.0631 31.4318 36.6861C30.8211 35.355 29.4914 34.5012 28.0268 34.4999Z" fill="#F1CA89"/>
<path d="M13.262 29.2881C13.1488 29.3249 10.499 30.2414 10.499 32.9999C10.499 33.4141 10.8348 33.7499 11.249 33.7499C11.6632 33.7499 11.999 33.4141 11.999 32.9999C12.0602 31.9537 12.7486 31.0486 13.7405 30.7101C14.134 30.578 14.3459 30.1519 14.2138 29.7584C14.0816 29.3649 13.6555 29.153 13.262 29.2851V29.2881Z" fill="#F1CA89"/>
<path d="M23.8169 28.4775C23.8765 28.4926 23.9377 28.5002 23.9992 28.5C24.3429 28.4996 24.6424 28.2657 24.7259 27.9323C25.0711 26.5317 26.3109 25.5355 27.7529 25.5C28.1671 25.499 28.5021 25.1623 28.501 24.7481C28.5 24.3339 28.1634 23.999 27.7492 24C25.6174 24.0283 23.7753 25.4962 23.2717 27.5678C23.171 27.9695 23.4151 28.3768 23.8169 28.4775Z" fill="#F1CA89"/>
</g>
<defs>
<clipPath id="clip0">
<rect width="45" height="45" fill="white"/>
</clipPath>
</defs>
</svg>
