<svg width="51" height="51" viewBox="0 0 51 51" fill="none" xmlns="http://www.w3.org/2000/svg">
<g clip-path="url(#clip0)">
<path d="M34.9585 44.4453C35.3711 44.4453 35.7056 44.1109 35.7056 43.6982V42.3801C35.7056 38.856 33.3274 35.7606 29.9224 34.8526L22.1216 32.7724V29.5738C24.6728 28.1519 26.4467 25.4975 26.6328 22.4214H27.5125C28.8121 22.4214 29.8696 21.364 29.8696 20.0643V14.4073C29.8695 7.78129 24.4788 2.39062 17.8528 2.39062C11.2268 2.39062 5.83611 7.78129 5.83611 14.4073V20.0643C5.83611 21.364 6.89347 22.4214 8.19317 22.4214H9.07292C9.25899 25.4975 11.0329 28.1519 13.584 29.5738V32.7724L5.78332 34.8526C2.37817 35.7606 0 38.856 0 42.3801V43.6982C0 44.1109 0.334488 44.4453 0.74707 44.4453C1.15965 44.4453 1.49414 44.1109 1.49414 43.6982V42.3801C1.49414 39.5319 3.4162 37.0302 6.16821 36.2964L10.6084 35.1123L12.6276 39.8141C12.8589 40.3525 13.3409 40.7381 13.9169 40.8456C14.0246 40.8657 14.1327 40.8756 14.24 40.8756C14.3789 40.8756 14.5161 40.8571 14.6496 40.8249L15.6209 42.6162L13.8298 51.8965H7.73278V49.9268C7.73278 49.5141 7.39829 49.1797 6.9857 49.1797C6.57312 49.1797 6.23863 49.5141 6.23863 49.9268V51.8965H1.49424V47.1849C1.49424 46.7722 1.15975 46.4378 0.74717 46.4378C0.334588 46.4378 9.95547e-05 46.7722 9.95547e-05 47.1849V52.6436C9.95547e-05 53.0562 0.334588 53.3906 0.74717 53.3906H34.9585C35.3711 53.3906 35.7056 53.0562 35.7056 52.6436V47.1849C35.7056 46.7722 35.3711 46.4378 34.9585 46.4378C34.5459 46.4378 34.2114 46.7722 34.2114 47.1849V51.8965H29.467V49.9268C29.467 49.5141 29.1326 49.1797 28.72 49.1797C28.3074 49.1797 27.9729 49.5141 27.9729 49.9268V51.8965H21.8759L20.0846 42.6161L21.056 40.8248C21.1896 40.857 21.3267 40.8755 21.4656 40.8755C21.5729 40.8755 21.6811 40.8656 21.7887 40.8455C22.3647 40.738 22.8467 40.3524 23.078 39.814L25.0972 35.1122L29.5375 36.2963C32.2895 37.0301 34.2115 39.5318 34.2115 42.38V43.6981C34.2114 44.1109 34.5458 44.4453 34.9585 44.4453ZM28.3753 20.0643C28.3753 20.5401 27.9882 20.9272 27.5124 20.9272H26.6495V17.5915H27.5124C27.9881 17.5915 28.3753 17.9787 28.3753 18.4544V20.0643ZM17.8528 3.88477C23.6549 3.88477 28.3753 8.60515 28.3753 14.4073V16.2616C28.1079 16.156 27.817 16.0973 27.5124 16.0973H26.3502L25.9575 15.3631C25.8275 15.1201 25.5743 14.9683 25.2987 14.9683H23.8639C22.6937 14.9683 21.652 14.2248 21.2717 13.1184L20.9741 12.2528C20.8717 11.9546 20.5931 11.7529 20.278 11.7485C19.9616 11.7398 19.6788 11.9381 19.5682 12.2331L19.2095 13.1896C18.8105 14.2536 17.7791 14.9683 16.6428 14.9683H10.4067C10.1311 14.9683 9.87786 15.12 9.74787 15.3631L9.35521 16.0973H8.19297C7.88846 16.0973 7.59751 16.1559 7.33005 16.2616V14.4073C7.33025 8.60515 12.0506 3.88477 17.8528 3.88477ZM7.33025 20.0643V18.4544C7.33025 17.9787 7.71734 17.5915 8.19317 17.5915H9.05609V20.9272H8.19317C7.71734 20.9272 7.33025 20.5401 7.33025 20.0643ZM10.5501 21.8847V17.0316L10.8544 16.4624H16.6429C18.1252 16.4624 19.4922 15.675 20.2528 14.4404C21.0111 15.6779 22.3698 16.4624 23.864 16.4624H24.8511L25.1554 17.0316V21.8847C25.1554 24.7591 23.4855 27.2499 21.0654 28.4408C21.0458 28.4497 21.0266 28.4592 21.008 28.4698C20.0525 28.9295 18.9823 29.1873 17.8528 29.1873C16.7233 29.1873 15.6531 28.9295 14.6976 28.4698C14.6789 28.4592 14.6597 28.4497 14.6402 28.4408C12.2201 27.2499 10.5501 24.7591 10.5501 21.8847ZM17.8528 30.6815C18.8219 30.6815 19.7547 30.5235 20.6274 30.2327V33.3464C20.6274 34.8763 19.3827 36.1211 17.8528 36.1211C16.3229 36.1211 15.0782 34.8763 15.0782 33.3464V30.2327C15.9508 30.5235 16.8837 30.6815 17.8528 30.6815ZM18.8556 41.7481H16.85L15.8773 39.9545L17.8528 37.9361L19.8282 39.9545L18.8556 41.7481ZM14.1911 39.3769C14.1403 39.3674 14.048 39.3349 14.0006 39.2244L12.0676 34.7232L13.6905 34.2904C14.0089 35.6945 15.0206 36.8378 16.3459 37.3397L14.4239 39.3034C14.3398 39.3893 14.2419 39.3863 14.1911 39.3769ZM15.3515 51.8965L17.0219 43.2422H18.6835L20.3541 51.8965H15.3515ZM21.705 39.2243C21.6575 39.3348 21.5651 39.3674 21.5143 39.3768C21.4633 39.3861 21.3657 39.3894 21.2815 39.3034L19.3596 37.3397C20.685 36.8378 21.6966 35.6945 22.015 34.2904L23.6379 34.7232L21.705 39.2243Z" fill="#F1CA89"/>
</g>
<defs>
<clipPath id="clip0">
<rect width="51" height="51" fill="white"/>
</clipPath>
</defs>
</svg>
